<svg xmlns="http://www.w3.org/2000/svg" xmlns:xlink="http://www.w3.org/1999/xlink" version="1.1" width="1000" height="1000" viewBox="0 0 1000 1000" xml:space="preserve">
<desc>Created with Fabric.js 3.5.0</desc>
<defs>
</defs>
<rect x="0" y="0" width="100%" height="100%" fill="#ffffff"/>
<g transform="matrix(1.9168 0 0 1.9168 499.9929 458.9145)" id="818180">
<path style="stroke: none; stroke-width: 1; stroke-dasharray: none; stroke-linecap: butt; stroke-dashoffset: 0; stroke-linejoin: miter; stroke-miterlimit: 4; is-custom-font: none; font-file-url: none; fill: rgb(34,153,248); fill-rule: nonzero; opacity: 1;" vector-effect="non-scaling-stroke" transform=" translate(-256.0005, -256.0005)" d="M 389.172 211.142 c 0.68 -4.904 1.041 -9.899 1.041 -14.954 c 0 -57.721 -46.824 -104.672 -104.393 -104.672 c -36.949 0 -71.07 19.945 -89.533 51.086 c -9.303 -4.102 -19.356 -6.227 -29.761 -6.227 c -41.101 0 -74.564 33.559 -74.564 74.767 c 0 1.528 0.032 3.018 0.149 4.481 c -43.519 12.655 -74.714 53.265 -74.714 100.189 c 0 57.715 46.823 104.673 104.392 104.673 h 268.424 c 57.563 0 104.391 -46.958 104.391 -104.673 C 494.604 257.764 447.654 210.663 389.172 211.142 L 389.172 211.142 z M 389.172 211.142" stroke-linecap="round"/>
</g>
<g transform="matrix(1 0 0 1 500 564.1604)" style="" id="578556">
		
<path xml:space="preserve" font-family="Lato" font-size="90" font-style="normal" font-weight="bold" style="stroke: none; stroke-width: 1; stroke-dasharray: none; stroke-linecap: butt; stroke-dashoffset: 0; stroke-linejoin: miter; stroke-miterlimit: 4; is-custom-font: none; font-file-url: none; fill: rgb(0,0,0); fill-rule: nonzero; opacity: 1; white-space: pre;" d="M-284.21-82.56L-284.21-17.49L-296.36-17.49L-296.36-82.56L-284.21-82.56ZM-255.95-82.56L-255.95-17.49L-268.10-17.49L-268.10-82.56L-255.95-82.56ZM-246.82-82.56L-195.47-82.56L-195.47-72.62L-215.05-72.62L-215.05-17.49L-227.15-17.49L-227.15-72.62L-246.82-72.62L-246.82-82.56ZM-149.93-76.44L-152.90-70.73Q-153.40-69.74-154.05-69.33Q-154.70-68.93-155.60-68.93L-155.60-68.93Q-156.50-68.93-157.63-69.62Q-158.75-70.32-160.28-71.18Q-161.81-72.03-163.86-72.73Q-165.91-73.43-168.70-73.43L-168.70-73.43Q-171.22-73.43-173.09-72.82Q-174.95-72.21-176.24-71.13Q-177.52-70.05-178.15-68.54Q-178.78-67.04-178.78-65.24L-178.78-65.24Q-178.78-62.94-177.50-61.41Q-176.21-59.88-174.10-58.80Q-171.98-57.72-169.28-56.87Q-166.58-56.01-163.77-55.04Q-160.96-54.08-158.26-52.79Q-155.56-51.51-153.44-49.55Q-151.33-47.60-150.05-44.76Q-148.76-41.93-148.76-37.88L-148.76-37.88Q-148.76-33.47-150.27-29.62Q-151.78-25.77-154.68-22.91Q-157.58-20.06-161.77-18.41Q-165.95-16.77-171.35-16.77L-171.35-16.77Q-174.46-16.77-177.47-17.38Q-180.49-17.99-183.26-19.11Q-186.02-20.24-188.43-21.81Q-190.84-23.39-192.73-25.32L-192.73-25.32L-189.22-31.13Q-188.72-31.76-188.03-32.18Q-187.33-32.61-186.47-32.61L-186.47-32.61Q-185.35-32.61-184.04-31.69Q-182.74-30.77-180.96-29.64Q-179.18-28.52-176.78-27.59Q-174.37-26.67-170.99-26.67L-170.99-26.67Q-165.82-26.67-162.98-29.12Q-160.15-31.58-160.15-36.17L-160.15-36.17Q-160.15-38.73-161.43-40.35Q-162.71-41.97-164.83-43.07Q-166.94-44.18-169.64-44.94Q-172.34-45.71-175.13-46.61Q-177.92-47.51-180.62-48.77Q-183.32-50.03-185.44-52.05Q-187.55-54.08-188.84-57.11Q-190.12-60.15-190.12-64.61L-190.12-64.61Q-190.12-68.16-188.70-71.54Q-187.28-74.91-184.56-77.52Q-181.84-80.13-177.88-81.71Q-173.92-83.28-168.83-83.28L-168.83-83.28Q-163.07-83.28-158.21-81.48Q-153.35-79.68-149.93-76.44L-149.93-76.44ZM-89.45-44.49L-89.45-44.49Q-88.69-43.05-88.04-41.50Q-87.38-39.95-86.75-38.37L-86.75-38.37Q-86.12-39.99-85.45-41.57Q-84.77-43.14-84.01-44.58L-84.01-44.58L-64.75-80.63Q-64.39-81.30-64.01-81.71Q-63.62-82.11-63.15-82.29Q-62.68-82.47-62.09-82.52Q-61.51-82.56-60.70-82.56L-60.70-82.56L-51.56-82.56L-51.56-17.49L-62.23-17.49L-62.23-59.52Q-62.23-60.69-62.16-62.09Q-62.09-63.48-61.96-64.92L-61.96-64.92L-81.62-28.02Q-82.30-26.76-83.38-26.06Q-84.46-25.37-85.90-25.37L-85.90-25.37L-87.56-25.37Q-89.00-25.37-90.08-26.06Q-91.16-26.76-91.84-28.02L-91.84-28.02L-111.77-65.06Q-111.59-63.57-111.53-62.15Q-111.46-60.74-111.46-59.52L-111.46-59.52L-111.46-17.49L-122.12-17.49L-122.12-82.56L-112.99-82.56Q-112.18-82.56-111.59-82.52Q-111.01-82.47-110.54-82.29Q-110.06-82.11-109.66-81.71Q-109.25-81.30-108.89-80.63L-108.89-80.63L-89.45-44.49ZM-19.34-64.38L-19.34-64.38Q-14.17-64.38-9.96-62.72Q-5.75-61.05-2.78-57.99Q0.19-54.93 1.81-50.52Q3.43-46.11 3.43-40.67L3.43-40.67Q3.43-35.18 1.81-30.77Q0.19-26.36-2.78-23.25Q-5.75-20.15-9.96-18.48Q-14.17-16.82-19.34-16.82L-19.34-16.82Q-24.52-16.82-28.75-18.48Q-32.98-20.15-35.97-23.25Q-38.96-26.36-40.61-30.77Q-42.25-35.18-42.25-40.67L-42.25-40.67Q-42.25-46.11-40.61-50.52Q-38.96-54.93-35.97-57.99Q-32.98-61.05-28.75-62.72Q-24.52-64.38-19.34-64.38ZM-19.34-25.37L-19.34-25.37Q-13.58-25.37-10.82-29.24Q-8.05-33.11-8.05-40.58L-8.05-40.58Q-8.05-48.05-10.82-51.96Q-13.58-55.88-19.34-55.88L-19.34-55.88Q-25.19-55.88-27.98-51.94Q-30.77-48.00-30.77-40.58L-30.77-40.58Q-30.77-33.15-27.98-29.26Q-25.19-25.37-19.34-25.37ZM23.23-17.49L12.11-17.49L12.11-63.66L18.91-63.66Q21.07-63.66 21.74-61.64L21.74-61.64L22.51-57.99Q23.90-59.43 25.45-60.60Q27.01-61.77 28.74-62.63Q30.47-63.48 32.45-63.93Q34.43-64.38 36.77-64.38L36.77-64.38Q40.55-64.38 43.48-63.10Q46.40-61.82 48.36-59.50Q50.32-57.18 51.33-53.96Q52.34-50.75 52.34-46.88L52.34-46.88L52.34-17.49L41.23-17.49L41.23-46.88Q41.23-51.11 39.27-53.42Q37.31-55.74 33.40-55.74L33.40-55.74Q30.52-55.74 28.00-54.44Q25.48-53.13 23.23-50.88L23.23-50.88L23.23-17.49ZM64.00-63.66L75.11-63.66L75.11-17.49L64.00-17.49L64.00-63.66ZM76.78-77.12L76.78-77.12Q76.78-75.68 76.19-74.42Q75.61-73.16 74.64-72.21Q73.67-71.27 72.37-70.70Q71.06-70.14 69.58-70.14L69.58-70.14Q68.14-70.14 66.85-70.70Q65.57-71.27 64.63-72.21Q63.68-73.16 63.12-74.42Q62.56-75.68 62.56-77.12L62.56-77.12Q62.56-78.60 63.12-79.91Q63.68-81.21 64.63-82.16Q65.57-83.10 66.85-83.66Q68.14-84.23 69.58-84.23L69.58-84.23Q71.06-84.23 72.37-83.66Q73.67-83.10 74.64-82.16Q75.61-81.21 76.19-79.91Q76.78-78.60 76.78-77.12ZM102.83-16.77L102.83-16.77Q96.85-16.77 93.61-20.17Q90.37-23.57 90.37-29.55L90.37-29.55L90.37-55.34L85.69-55.34Q84.79-55.34 84.13-55.92Q83.48-56.51 83.48-57.68L83.48-57.68L83.48-62.09L90.91-63.30L93.25-75.90Q93.43-76.80 94.08-77.30Q94.73-77.79 95.72-77.79L95.72-77.79L101.48-77.79L101.48-63.26L113.63-63.26L113.63-55.34L101.48-55.34L101.48-30.32Q101.48-28.16 102.56-26.94Q103.64-25.73 105.44-25.73L105.44-25.73Q106.48-25.73 107.17-25.97Q107.87-26.22 108.39-26.49Q108.91-26.76 109.31-27.01Q109.72-27.26 110.12-27.26L110.12-27.26Q110.62-27.26 110.93-27.01Q111.25-26.76 111.61-26.27L111.61-26.27L114.94-20.87Q112.51-18.84 109.36-17.81Q106.21-16.77 102.83-16.77ZM142.21-64.38L142.21-64.38Q147.38-64.38 151.59-62.72Q155.80-61.05 158.77-57.99Q161.74-54.93 163.36-50.52Q164.98-46.11 164.98-40.67L164.98-40.67Q164.98-35.18 163.36-30.77Q161.74-26.36 158.77-23.25Q155.80-20.15 151.59-18.48Q147.38-16.82 142.21-16.82L142.21-16.82Q137.03-16.82 132.80-18.48Q128.57-20.15 125.58-23.25Q122.59-26.36 120.94-30.77Q119.30-35.18 119.30-40.67L119.30-40.67Q119.30-46.11 120.94-50.52Q122.59-54.93 125.58-57.99Q128.57-61.05 132.80-62.72Q137.03-64.38 142.21-64.38ZM142.21-25.37L142.21-25.37Q147.97-25.37 150.73-29.24Q153.50-33.11 153.50-40.58L153.50-40.58Q153.50-48.05 150.73-51.96Q147.97-55.88 142.21-55.88L142.21-55.88Q136.36-55.88 133.57-51.94Q130.78-48.00 130.78-40.58L130.78-40.58Q130.78-33.15 133.57-29.26Q136.36-25.37 142.21-25.37ZM184.78-17.49L173.66-17.49L173.66-63.66L180.19-63.66Q181.90-63.66 182.57-63.03Q183.25-62.40 183.47-60.87L183.47-60.87L184.15-55.29Q186.62-59.57 189.95-62.04Q193.28-64.52 197.42-64.52L197.42-64.52Q200.84-64.52 203.09-62.94L203.09-62.94L201.65-54.62Q201.52-53.81 201.07-53.47Q200.62-53.13 199.85-53.13L199.85-53.13Q199.18-53.13 198.01-53.45Q196.84-53.76 194.90-53.76L194.90-53.76Q191.44-53.76 188.96-51.85Q186.49-49.94 184.78-46.25L184.78-46.25L184.78-17.49ZM211.15-63.66L222.26-63.66L222.26-17.49L211.15-17.49L211.15-63.66ZM223.93-77.12L223.93-77.12Q223.93-75.68 223.34-74.42Q222.76-73.16 221.79-72.21Q220.82-71.27 219.52-70.70Q218.21-70.14 216.73-70.14L216.73-70.14Q215.29-70.14 214.00-70.70Q212.72-71.27 211.78-72.21Q210.83-73.16 210.27-74.42Q209.71-75.68 209.71-77.12L209.71-77.12Q209.71-78.60 210.27-79.91Q210.83-81.21 211.78-82.16Q212.72-83.10 214.00-83.66Q215.29-84.23 216.73-84.23L216.73-84.23Q218.21-84.23 219.52-83.66Q220.82-83.10 221.79-82.16Q222.76-81.21 223.34-79.91Q223.93-78.60 223.93-77.12ZM245.93-17.49L234.82-17.49L234.82-63.66L241.61-63.66Q243.77-63.66 244.45-61.64L244.45-61.64L245.21-57.99Q246.61-59.43 248.16-60.60Q249.71-61.77 251.44-62.63Q253.18-63.48 255.16-63.93Q257.14-64.38 259.48-64.38L259.48-64.38Q263.26-64.38 266.18-63.10Q269.11-61.82 271.06-59.50Q273.02-57.18 274.03-53.96Q275.05-50.75 275.05-46.88L275.05-46.88L275.05-17.49L263.93-17.49L263.93-46.88Q263.93-51.11 261.97-53.42Q260.02-55.74 256.10-55.74L256.10-55.74Q253.22-55.74 250.70-54.44Q248.18-53.13 245.93-50.88L245.93-50.88L245.93-17.49ZM301.96-64.47L301.96-64.47Q304.93-64.47 307.54-63.86Q310.15-63.26 312.31-62.09L312.31-62.09L325.58-62.09L325.58-57.95Q325.58-56.91 325.04-56.33Q324.50-55.74 323.20-55.52L323.20-55.52L319.06-54.75Q319.51-53.58 319.75-52.28Q320.00-50.97 320.00-49.53L320.00-49.53Q320.00-46.11 318.63-43.34Q317.26-40.58 314.85-38.64Q312.44-36.71 309.13-35.65Q305.83-34.59 301.96-34.59L301.96-34.59Q299.35-34.59 296.87-35.09L296.87-35.09Q294.71-33.78 294.71-32.16L294.71-32.16Q294.71-30.77 295.99-30.11Q297.28-29.46 299.37-29.19Q301.46-28.92 304.12-28.85Q306.77-28.79 309.56-28.56Q312.35-28.34 315.01-27.77Q317.66-27.21 319.75-26.00Q321.85-24.78 323.13-22.69Q324.41-20.60 324.41-17.31L324.41-17.31Q324.41-14.25 322.90-11.37Q321.40-8.49 318.54-6.24Q315.68-3.99 311.54-2.62Q307.40-1.25 302.09-1.25L302.09-1.25Q296.83-1.25 292.96-2.26Q289.09-3.27 286.54-4.96Q284.00-6.65 282.74-8.85Q281.48-11.06 281.48-13.44L281.48-13.44Q281.48-16.68 283.46-18.89Q285.44-21.09 288.95-22.40L288.95-22.40Q287.24-23.34 286.21-24.92Q285.17-26.49 285.17-29.01L285.17-29.01Q285.17-30.05 285.53-31.15Q285.89-32.25 286.63-33.33Q287.38-34.41 288.50-35.38Q289.63-36.35 291.16-37.11L291.16-37.11Q287.65-39.00 285.64-42.15Q283.64-45.30 283.64-49.53L283.64-49.53Q283.64-52.95 285.01-55.72Q286.39-58.49 288.84-60.44Q291.29-62.40 294.64-63.44Q298.00-64.47 301.96-64.47ZM314.15-15.42L314.15-15.42Q314.15-16.77 313.34-17.63Q312.53-18.48 311.14-18.95Q309.74-19.43 307.87-19.65Q306.01-19.88 303.91-19.99Q301.82-20.10 299.59-20.21Q297.37-20.33 295.30-20.60L295.30-20.60Q293.41-19.56 292.26-18.14Q291.11-16.73 291.11-14.88L291.11-14.88Q291.11-13.67 291.72-12.61Q292.33-11.55 293.65-10.79Q294.98-10.02 297.10-9.59Q299.21-9.17 302.27-9.17L302.27-9.17Q305.38-9.17 307.63-9.64Q309.88-10.11 311.34-10.94Q312.80-11.78 313.48-12.92Q314.15-14.07 314.15-15.42ZM301.96-41.70L301.96-41.70Q304.03-41.70 305.56-42.26Q307.09-42.83 308.10-43.82Q309.11-44.81 309.63-46.20Q310.15-47.60 310.15-49.26L310.15-49.26Q310.15-52.68 308.10-54.68Q306.05-56.69 301.96-56.69L301.96-56.69Q297.86-56.69 295.81-54.68Q293.77-52.68 293.77-49.26L293.77-49.26Q293.77-47.64 294.28-46.25Q294.80-44.85 295.81-43.84Q296.83-42.83 298.38-42.26Q299.93-41.70 301.96-41.70Z"/><path xml:space="preserve" font-family="Lato" font-size="90" font-style="normal" font-weight="bold" style="stroke: none; stroke-width: 1; stroke-dasharray: none; stroke-linecap: butt; stroke-dashoffset: 0; stroke-linejoin: miter; stroke-miterlimit: 4; is-custom-font: none; font-file-url: none; fill: rgb(0,0,0); fill-rule: nonzero; opacity: 1; white-space: pre;" d="M-117.37 15.09L-120.34 20.80Q-120.83 21.79-121.49 22.20Q-122.14 22.60-123.04 22.60L-123.04 22.60Q-123.94 22.60-125.06 21.91Q-126.19 21.21-127.72 20.35Q-129.25 19.50-131.30 18.80Q-133.34 18.10-136.13 18.10L-136.13 18.10Q-138.65 18.10-140.52 18.71Q-142.39 19.32-143.67 20.40Q-144.95 21.48-145.58 22.99Q-146.21 24.49-146.21 26.29L-146.21 26.29Q-146.21 28.59-144.93 30.12Q-143.65 31.65-141.53 32.73Q-139.42 33.81-136.72 34.66Q-134.02 35.52-131.21 36.49Q-128.39 37.45-125.69 38.74Q-122.99 40.02-120.88 41.98Q-118.76 43.93-117.48 46.77Q-116.20 49.60-116.20 53.65L-116.20 53.65Q-116.20 58.06-117.71 61.91Q-119.21 65.76-122.12 68.62Q-125.02 71.47-129.20 73.12Q-133.39 74.76-138.79 74.76L-138.79 74.76Q-141.89 74.76-144.91 74.15Q-147.92 73.54-150.69 72.42Q-153.46 71.29-155.87 69.72Q-158.27 68.14-160.16 66.21L-160.16 66.21L-156.65 60.40Q-156.16 59.77-155.46 59.35Q-154.76 58.92-153.91 58.92L-153.91 58.92Q-152.78 58.92-151.48 59.84Q-150.17 60.76-148.40 61.89Q-146.62 63.01-144.21 63.94Q-141.80 64.86-138.43 64.86L-138.43 64.86Q-133.25 64.86-130.42 62.41Q-127.58 59.95-127.58 55.36L-127.58 55.36Q-127.58 52.80-128.87 51.18Q-130.15 49.56-132.26 48.46Q-134.38 47.35-137.08 46.59Q-139.78 45.82-142.57 44.92Q-145.36 44.02-148.06 42.76Q-150.76 41.50-152.87 39.48Q-154.99 37.45-156.27 34.42Q-157.55 31.38-157.55 26.92L-157.55 26.92Q-157.55 23.37-156.14 19.99Q-154.72 16.62-152.00 14.01Q-149.27 11.40-145.31 9.82Q-141.35 8.25-136.27 8.25L-136.27 8.25Q-130.51 8.25-125.65 10.05Q-120.79 11.85-117.37 15.09L-117.37 15.09ZM-87.85 27.15L-87.85 27.15Q-82.67 27.15-78.47 28.81Q-74.26 30.48-71.29 33.54Q-68.32 36.60-66.70 41.01Q-65.08 45.42-65.08 50.86L-65.08 50.86Q-65.08 56.35-66.70 60.76Q-68.32 65.17-71.29 68.28Q-74.26 71.38-78.47 73.05Q-82.67 74.71-87.85 74.71L-87.85 74.71Q-93.02 74.71-97.25 73.05Q-101.48 71.38-104.48 68.28Q-107.47 65.17-109.11 60.76Q-110.75 56.35-110.75 50.86L-110.75 50.86Q-110.75 45.42-109.11 41.01Q-107.47 36.60-104.48 33.54Q-101.48 30.48-97.25 28.81Q-93.02 27.15-87.85 27.15ZM-87.85 66.16L-87.85 66.16Q-82.09 66.16-79.32 62.29Q-76.55 58.42-76.55 50.95L-76.55 50.95Q-76.55 43.48-79.32 39.57Q-82.09 35.65-87.85 35.65L-87.85 35.65Q-93.70 35.65-96.49 39.59Q-99.28 43.53-99.28 50.95L-99.28 50.95Q-99.28 58.38-96.49 62.27Q-93.70 66.16-87.85 66.16ZM-55.67 7.17L-44.56 7.17L-44.56 74.04L-55.67 74.04L-55.67 7.17ZM-32.95 27.87L-21.83 27.87L-21.83 57.21Q-21.83 61.44-19.88 63.76Q-17.92 66.07-14.00 66.07L-14.00 66.07Q-11.12 66.07-8.60 64.79Q-6.08 63.51-3.83 61.26L-3.83 61.26L-3.83 27.87L7.28 27.87L7.28 74.04L0.49 74.04Q-1.67 74.04-2.35 72.01L-2.35 72.01L-3.11 68.32Q-4.55 69.76-6.08 70.96Q-7.61 72.15-9.35 72.98Q-11.08 73.81-13.08 74.29Q-15.08 74.76-17.38 74.76L-17.38 74.76Q-21.16 74.76-24.06 73.48Q-26.96 72.19-28.94 69.85Q-30.92 67.51-31.94 64.30Q-32.95 61.08-32.95 57.21L-32.95 57.21L-32.95 27.87ZM34.33 74.76L34.33 74.76Q28.34 74.76 25.10 71.36Q21.86 67.96 21.86 61.98L21.86 61.98L21.86 36.19L17.18 36.19Q16.28 36.19 15.63 35.61Q14.98 35.02 14.98 33.85L14.98 33.85L14.98 29.44L22.40 28.23L24.74 15.63Q24.92 14.73 25.57 14.23Q26.23 13.74 27.22 13.74L27.22 13.74L32.98 13.74L32.98 28.27L45.13 28.27L45.13 36.19L32.98 36.19L32.98 61.21Q32.98 63.37 34.06 64.59Q35.14 65.80 36.94 65.80L36.94 65.80Q37.97 65.80 38.67 65.56Q39.37 65.31 39.88 65.04Q40.40 64.77 40.81 64.52Q41.21 64.27 41.62 64.27L41.62 64.27Q42.11 64.27 42.43 64.52Q42.74 64.77 43.10 65.26L43.10 65.26L46.43 70.66Q44.00 72.69 40.85 73.72Q37.70 74.76 34.33 74.76ZM54.71 27.87L65.83 27.87L65.83 74.04L54.71 74.04L54.71 27.87ZM67.49 14.41L67.49 14.41Q67.49 15.85 66.91 17.11Q66.32 18.37 65.35 19.32Q64.39 20.26 63.08 20.83Q61.78 21.39 60.29 21.39L60.29 21.39Q58.85 21.39 57.57 20.83Q56.29 20.26 55.34 19.32Q54.40 18.37 53.83 17.11Q53.27 15.85 53.27 14.41L53.27 14.41Q53.27 12.93 53.83 11.62Q54.40 10.32 55.34 9.37Q56.29 8.43 57.57 7.87Q58.85 7.30 60.29 7.30L60.29 7.30Q61.78 7.30 63.08 7.87Q64.39 8.43 65.35 9.37Q66.32 10.32 66.91 11.62Q67.49 12.93 67.49 14.41ZM98.09 27.15L98.09 27.15Q103.27 27.15 107.47 28.81Q111.68 30.48 114.65 33.54Q117.62 36.60 119.24 41.01Q120.86 45.42 120.86 50.86L120.86 50.86Q120.86 56.35 119.24 60.76Q117.62 65.17 114.65 68.28Q111.68 71.38 107.47 73.05Q103.27 74.71 98.09 74.71L98.09 74.71Q92.92 74.71 88.69 73.05Q84.46 71.38 81.46 68.28Q78.47 65.17 76.83 60.76Q75.19 56.35 75.19 50.86L75.19 50.86Q75.19 45.42 76.83 41.01Q78.47 36.60 81.46 33.54Q84.46 30.48 88.69 28.81Q92.92 27.15 98.09 27.15ZM98.09 66.16L98.09 66.16Q103.85 66.16 106.62 62.29Q109.39 58.42 109.39 50.95L109.39 50.95Q109.39 43.48 106.62 39.57Q103.85 35.65 98.09 35.65L98.09 35.65Q92.24 35.65 89.45 39.59Q86.66 43.53 86.66 50.95L86.66 50.95Q86.66 58.38 89.45 62.27Q92.24 66.16 98.09 66.16ZM140.66 74.04L129.55 74.04L129.55 27.87L136.34 27.87Q138.50 27.87 139.18 29.89L139.18 29.89L139.94 33.54Q141.34 32.10 142.89 30.93Q144.44 29.76 146.17 28.90Q147.91 28.05 149.89 27.60Q151.87 27.15 154.21 27.15L154.21 27.15Q157.99 27.15 160.91 28.43Q163.84 29.71 165.79 32.03Q167.75 34.35 168.76 37.57Q169.78 40.78 169.78 44.65L169.78 44.65L169.78 74.04L158.66 74.04L158.66 44.65Q158.66 40.42 156.70 38.11Q154.75 35.79 150.83 35.79L150.83 35.79Q147.95 35.79 145.43 37.09Q142.91 38.40 140.66 40.65L140.66 40.65L140.66 74.04Z"/></g>
</svg>
