<?xml version="1.0" encoding="UTF-8"?>
<svg xmlns="http://www.w3.org/2000/svg" xmlns:xlink="http://www.w3.org/1999/xlink" width="351px" height="365px" viewBox="0 0 351 365" version="1.1">
<g id="surface1">
<rect x="0" y="0" width="351" height="365" style="fill:rgb(100%,100%,100%);fill-opacity:1;stroke:none;"/>
<path style=" stroke:none;fill-rule:nonzero;fill:rgb(13.333333%,60%,97.254902%);fill-opacity:1;" d="M 265.09375 136.121094 C 265.550781 132.6875 265.796875 129.195312 265.796875 125.65625 C 265.796875 85.273438 234.292969 52.425781 195.558594 52.425781 C 170.699219 52.425781 147.746094 66.378906 135.324219 88.167969 C 129.0625 85.296875 122.300781 83.808594 115.300781 83.808594 C 87.648438 83.808594 65.132812 107.289062 65.132812 136.121094 C 65.132812 137.1875 65.15625 138.230469 65.234375 139.253906 C 35.953125 148.109375 14.964844 176.519531 14.964844 209.351562 C 14.964844 249.730469 46.46875 282.582031 85.199219 282.582031 L 265.796875 282.582031 C 304.523438 282.582031 336.027344 249.730469 336.027344 209.351562 C 336.027344 168.738281 304.441406 135.785156 265.09375 136.121094 Z M 265.09375 136.121094 "/>
<path style=" stroke:none;fill-rule:nonzero;fill:rgb(0%,0%,0%);fill-opacity:1;" d="M 75.742188 175.785156 L 75.742188 199.535156 L 71.476562 199.535156 L 71.476562 175.785156 Z M 85.660156 175.785156 L 85.660156 199.535156 L 81.398438 199.535156 L 81.398438 175.785156 Z M 88.867188 175.785156 L 106.890625 175.785156 L 106.890625 179.414062 L 100.015625 179.414062 L 100.015625 199.535156 L 95.769531 199.535156 L 95.769531 179.414062 L 88.867188 179.414062 Z M 122.875 178.019531 L 121.832031 180.101562 C 121.714844 180.34375 121.582031 180.511719 121.429688 180.613281 C 121.277344 180.710938 121.09375 180.757812 120.882812 180.757812 C 120.671875 180.757812 120.4375 180.675781 120.171875 180.507812 C 119.910156 180.335938 119.601562 180.148438 119.242188 179.9375 C 118.882812 179.730469 118.464844 179.542969 117.984375 179.371094 C 117.503906 179.203125 116.9375 179.117188 116.285156 179.117188 C 115.695312 179.117188 115.183594 179.191406 114.746094 179.339844 C 114.308594 179.488281 113.941406 179.691406 113.640625 179.957031 C 113.339844 180.21875 113.117188 180.535156 112.96875 180.902344 C 112.820312 181.265625 112.75 181.667969 112.75 182.105469 C 112.75 182.664062 112.898438 183.132812 113.199219 183.503906 C 113.5 183.875 113.898438 184.195312 114.390625 184.457031 C 114.886719 184.71875 115.449219 184.953125 116.082031 185.160156 C 116.714844 185.371094 117.359375 185.59375 118.015625 185.828125 C 118.675781 186.0625 119.320312 186.335938 119.949219 186.648438 C 120.582031 186.960938 121.144531 187.355469 121.640625 187.832031 C 122.136719 188.308594 122.53125 188.890625 122.832031 189.582031 C 123.132812 190.269531 123.285156 191.105469 123.285156 192.09375 C 123.285156 193.164062 123.109375 194.171875 122.753906 195.105469 C 122.402344 196.042969 121.886719 196.859375 121.207031 197.554688 C 120.527344 198.25 119.699219 198.796875 118.71875 199.199219 C 117.742188 199.597656 116.621094 199.796875 115.355469 199.796875 C 114.628906 199.796875 113.914062 199.722656 113.207031 199.574219 C 112.5 199.425781 111.824219 199.214844 111.175781 198.945312 C 110.53125 198.667969 109.925781 198.339844 109.359375 197.957031 C 108.796875 197.574219 108.292969 197.144531 107.851562 196.675781 L 109.082031 194.554688 C 109.199219 194.402344 109.339844 194.273438 109.5 194.171875 C 109.664062 194.066406 109.847656 194.015625 110.050781 194.015625 C 110.3125 194.015625 110.59375 194.128906 110.902344 194.351562 C 111.207031 194.574219 111.566406 194.824219 111.984375 195.101562 C 112.398438 195.371094 112.886719 195.621094 113.449219 195.847656 C 114.015625 196.070312 114.691406 196.183594 115.484375 196.183594 C 116.691406 196.183594 117.628906 195.886719 118.292969 195.289062 C 118.957031 194.691406 119.289062 193.832031 119.289062 192.714844 C 119.289062 192.09375 119.136719 191.585938 118.839844 191.191406 C 118.539062 190.796875 118.140625 190.464844 117.644531 190.199219 C 117.152344 189.929688 116.589844 189.699219 115.957031 189.515625 C 115.324219 189.328125 114.683594 189.125 114.03125 188.90625 C 113.375 188.6875 112.734375 188.425781 112.101562 188.117188 C 111.46875 187.8125 110.90625 187.410156 110.410156 186.921875 C 109.917969 186.425781 109.519531 185.8125 109.21875 185.074219 C 108.917969 184.332031 108.769531 183.421875 108.769531 182.335938 C 108.769531 181.472656 108.933594 180.628906 109.265625 179.804688 C 109.597656 178.988281 110.082031 178.257812 110.71875 177.625 C 111.355469 176.988281 112.136719 176.480469 113.0625 176.09375 C 113.992188 175.710938 115.050781 175.519531 116.242188 175.519531 C 117.589844 175.519531 118.832031 175.742188 119.96875 176.179688 C 121.105469 176.617188 122.074219 177.230469 122.875 178.019531 Z M 144.101562 189.679688 C 144.28125 190.03125 144.445312 190.394531 144.597656 190.769531 C 144.753906 191.148438 144.902344 191.527344 145.050781 191.914062 C 145.199219 191.519531 145.351562 191.128906 145.507812 190.746094 C 145.667969 190.363281 145.835938 189.996094 146.011719 189.648438 L 152.773438 176.488281 C 152.855469 176.324219 152.945312 176.195312 153.03125 176.09375 C 153.125 175.996094 153.222656 175.925781 153.335938 175.882812 C 153.445312 175.839844 153.566406 175.8125 153.707031 175.796875 C 153.84375 175.789062 154.003906 175.785156 154.195312 175.785156 L 157.402344 175.785156 L 157.402344 199.535156 L 153.65625 199.535156 L 153.65625 184.195312 C 153.65625 183.910156 153.664062 183.597656 153.683594 183.253906 C 153.699219 182.917969 153.722656 182.574219 153.753906 182.222656 L 146.851562 195.691406 C 146.691406 195.996094 146.488281 196.234375 146.234375 196.40625 C 145.980469 196.574219 145.6875 196.660156 145.347656 196.660156 L 144.765625 196.660156 C 144.429688 196.660156 144.132812 196.574219 143.882812 196.40625 C 143.628906 196.234375 143.421875 195.996094 143.265625 195.691406 L 136.269531 182.171875 C 136.3125 182.535156 136.339844 182.886719 136.351562 183.234375 C 136.371094 183.578125 136.378906 183.898438 136.378906 184.195312 L 136.378906 199.535156 L 132.636719 199.535156 L 132.636719 175.785156 L 135.839844 175.785156 C 136.03125 175.785156 136.195312 175.789062 136.332031 175.796875 C 136.46875 175.8125 136.589844 175.839844 136.699219 175.882812 C 136.8125 175.925781 136.914062 175.996094 137.007812 176.09375 C 137.105469 176.195312 137.195312 176.324219 137.28125 176.488281 Z M 168.710938 182.417969 C 169.921875 182.417969 171.019531 182.621094 172.003906 183.027344 C 172.988281 183.433594 173.828125 184.007812 174.523438 184.753906 C 175.21875 185.496094 175.757812 186.40625 176.136719 187.480469 C 176.515625 188.550781 176.703125 189.75 176.703125 191.074219 C 176.703125 192.410156 176.515625 193.613281 176.136719 194.6875 C 175.757812 195.761719 175.21875 196.675781 174.523438 197.433594 C 173.828125 198.1875 172.988281 198.765625 172.003906 199.171875 C 171.019531 199.578125 169.921875 199.777344 168.710938 199.777344 C 167.5 199.777344 166.398438 199.578125 165.410156 199.171875 C 164.417969 198.765625 163.574219 198.1875 162.875 197.433594 C 162.175781 196.675781 161.632812 195.761719 161.246094 194.6875 C 160.863281 193.613281 160.671875 192.410156 160.671875 191.074219 C 160.671875 189.75 160.863281 188.550781 161.246094 187.480469 C 161.632812 186.40625 162.175781 185.496094 162.875 184.753906 C 163.574219 184.007812 164.417969 183.433594 165.410156 183.027344 C 166.398438 182.621094 167.5 182.417969 168.710938 182.417969 Z M 168.710938 196.660156 C 170.058594 196.660156 171.054688 196.1875 171.703125 195.246094 C 172.351562 194.304688 172.675781 192.925781 172.675781 191.105469 C 172.675781 189.289062 172.351562 187.90625 171.703125 186.953125 C 171.054688 186 170.058594 185.523438 168.710938 185.523438 C 167.34375 185.523438 166.332031 186 165.679688 186.960938 C 165.027344 187.917969 164.699219 189.300781 164.699219 191.105469 C 164.699219 192.914062 165.027344 194.292969 165.679688 195.238281 C 166.332031 196.183594 167.34375 196.660156 168.710938 196.660156 Z M 183.652344 199.535156 L 179.75 199.535156 L 179.75 182.683594 L 182.136719 182.683594 C 182.644531 182.683594 182.972656 182.929688 183.128906 183.421875 L 183.402344 184.753906 C 183.726562 184.402344 184.070312 184.085938 184.433594 183.800781 C 184.796875 183.515625 185.183594 183.269531 185.585938 183.058594 C 185.992188 182.851562 186.425781 182.695312 186.890625 182.585938 C 187.351562 182.472656 187.859375 182.417969 188.40625 182.417969 C 189.289062 182.417969 190.074219 182.574219 190.761719 182.886719 C 191.445312 183.199219 192.015625 183.636719 192.472656 184.199219 C 192.933594 184.765625 193.28125 185.441406 193.515625 186.222656 C 193.753906 187.003906 193.871094 187.867188 193.871094 188.808594 L 193.871094 199.535156 L 189.972656 199.535156 L 189.972656 188.808594 C 189.972656 187.777344 189.742188 186.980469 189.285156 186.421875 C 188.824219 185.855469 188.136719 185.574219 187.222656 185.574219 C 186.550781 185.574219 185.917969 185.730469 185.328125 186.046875 C 184.738281 186.367188 184.179688 186.800781 183.652344 187.347656 Z M 197.964844 182.683594 L 201.863281 182.683594 L 201.863281 199.535156 L 197.964844 199.535156 Z M 202.449219 177.769531 C 202.449219 178.121094 202.378906 178.449219 202.242188 178.753906 C 202.105469 179.0625 201.925781 179.332031 201.699219 179.5625 C 201.472656 179.789062 201.207031 179.972656 200.902344 180.113281 C 200.59375 180.25 200.269531 180.316406 199.921875 180.316406 C 199.585938 180.316406 199.265625 180.25 198.964844 180.113281 C 198.664062 179.972656 198.40625 179.789062 198.183594 179.5625 C 197.960938 179.332031 197.785156 179.0625 197.65625 178.753906 C 197.523438 178.449219 197.457031 178.121094 197.457031 177.769531 C 197.457031 177.410156 197.523438 177.070312 197.65625 176.75 C 197.785156 176.433594 197.960938 176.160156 198.183594 175.929688 C 198.40625 175.703125 198.664062 175.519531 198.964844 175.382812 C 199.265625 175.242188 199.585938 175.175781 199.921875 175.175781 C 200.269531 175.175781 200.59375 175.242188 200.902344 175.382812 C 201.207031 175.519531 201.472656 175.703125 201.699219 175.929688 C 201.925781 176.160156 202.105469 176.433594 202.242188 176.75 C 202.378906 177.070312 202.449219 177.410156 202.449219 177.769531 Z M 211.59375 199.796875 C 210.195312 199.796875 209.117188 199.382812 208.355469 198.554688 C 207.597656 197.730469 207.21875 196.589844 207.21875 195.132812 L 207.21875 185.71875 L 205.578125 185.71875 C 205.367188 185.71875 205.183594 185.648438 205.03125 185.507812 C 204.878906 185.363281 204.800781 185.148438 204.800781 184.867188 L 204.800781 183.253906 L 207.410156 182.8125 L 208.230469 178.214844 C 208.273438 177.996094 208.371094 177.824219 208.523438 177.703125 C 208.675781 177.585938 208.867188 177.523438 209.097656 177.523438 L 211.121094 177.523438 L 211.121094 182.828125 L 215.382812 182.828125 L 215.382812 185.71875 L 211.121094 185.71875 L 211.121094 194.851562 C 211.121094 195.378906 211.246094 195.789062 211.5 196.085938 C 211.75 196.378906 212.089844 196.527344 212.507812 196.527344 C 212.753906 196.527344 212.957031 196.496094 213.117188 196.441406 C 213.28125 196.378906 213.421875 196.316406 213.542969 196.25 C 213.667969 196.183594 213.773438 196.121094 213.867188 196.058594 C 213.964844 196 214.058594 195.96875 214.152344 195.96875 C 214.269531 195.96875 214.363281 196 214.4375 196.058594 C 214.511719 196.121094 214.589844 196.210938 214.675781 196.328125 L 215.84375 198.300781 C 215.273438 198.796875 214.621094 199.167969 213.886719 199.417969 C 213.148438 199.671875 212.382812 199.796875 211.59375 199.796875 Z M 225.414062 182.417969 C 226.625 182.417969 227.722656 182.621094 228.707031 183.027344 C 229.691406 183.433594 230.535156 184.007812 231.226562 184.753906 C 231.921875 185.496094 232.460938 186.40625 232.839844 187.480469 C 233.21875 188.550781 233.40625 189.75 233.40625 191.074219 C 233.40625 192.410156 233.21875 193.613281 232.839844 194.6875 C 232.460938 195.761719 231.921875 196.675781 231.226562 197.433594 C 230.535156 198.1875 229.691406 198.765625 228.707031 199.171875 C 227.722656 199.578125 226.625 199.777344 225.414062 199.777344 C 224.203125 199.777344 223.101562 199.578125 222.113281 199.171875 C 221.121094 198.765625 220.277344 198.1875 219.578125 197.433594 C 218.878906 196.675781 218.335938 195.761719 217.949219 194.6875 C 217.566406 193.613281 217.375 192.410156 217.375 191.074219 C 217.375 189.75 217.566406 188.550781 217.949219 187.480469 C 218.335938 186.40625 218.878906 185.496094 219.578125 184.753906 C 220.277344 184.007812 221.121094 183.433594 222.113281 183.027344 C 223.101562 182.621094 224.203125 182.417969 225.414062 182.417969 Z M 225.414062 196.660156 C 226.761719 196.660156 227.761719 196.1875 228.40625 195.246094 C 229.054688 194.304688 229.378906 192.925781 229.378906 191.105469 C 229.378906 189.289062 229.054688 187.90625 228.40625 186.953125 C 227.761719 186 226.761719 185.523438 225.414062 185.523438 C 224.046875 185.523438 223.035156 186 222.382812 186.960938 C 221.730469 187.917969 221.402344 189.300781 221.402344 191.105469 C 221.402344 192.914062 221.730469 194.292969 222.382812 195.238281 C 223.035156 196.183594 224.046875 196.660156 225.414062 196.660156 Z M 240.359375 199.535156 L 236.453125 199.535156 L 236.453125 182.683594 L 238.746094 182.683594 C 239.148438 182.683594 239.425781 182.757812 239.582031 182.914062 C 239.742188 183.066406 239.847656 183.328125 239.898438 183.699219 L 240.136719 185.738281 C 240.714844 184.695312 241.394531 183.875 242.171875 183.273438 C 242.953125 182.671875 243.824219 182.367188 244.792969 182.367188 C 245.59375 182.367188 246.257812 182.5625 246.785156 182.945312 L 246.277344 185.980469 C 246.25 186.179688 246.179688 186.320312 246.074219 186.402344 C 245.96875 186.484375 245.828125 186.527344 245.648438 186.527344 C 245.492188 186.527344 245.273438 186.488281 245 186.410156 C 244.726562 186.332031 244.363281 186.296875 243.910156 186.296875 C 243.101562 186.296875 242.40625 186.527344 241.824219 186.992188 C 241.246094 187.457031 240.757812 188.140625 240.359375 189.039062 Z M 249.613281 182.683594 L 253.511719 182.683594 L 253.511719 199.535156 L 249.613281 199.535156 Z M 254.097656 177.769531 C 254.097656 178.121094 254.03125 178.449219 253.890625 178.753906 C 253.757812 179.0625 253.574219 179.332031 253.347656 179.5625 C 253.121094 179.789062 252.855469 179.972656 252.550781 180.113281 C 252.246094 180.25 251.917969 180.316406 251.570312 180.316406 C 251.234375 180.316406 250.914062 180.25 250.613281 180.113281 C 250.316406 179.972656 250.054688 179.789062 249.835938 179.5625 C 249.613281 179.332031 249.4375 179.0625 249.304688 178.753906 C 249.171875 178.449219 249.109375 178.121094 249.109375 177.769531 C 249.109375 177.410156 249.171875 177.070312 249.304688 176.75 C 249.4375 176.433594 249.613281 176.160156 249.835938 175.929688 C 250.054688 175.703125 250.316406 175.519531 250.613281 175.382812 C 250.914062 175.242188 251.234375 175.175781 251.570312 175.175781 C 251.917969 175.175781 252.246094 175.242188 252.550781 175.382812 C 252.855469 175.519531 253.121094 175.703125 253.347656 175.929688 C 253.574219 176.160156 253.757812 176.433594 253.890625 176.75 C 254.03125 177.070312 254.097656 177.410156 254.097656 177.769531 Z M 261.820312 199.535156 L 257.921875 199.535156 L 257.921875 182.683594 L 260.304688 182.683594 C 260.8125 182.683594 261.144531 182.929688 261.300781 183.421875 L 261.570312 184.753906 C 261.894531 184.402344 262.242188 184.085938 262.605469 183.800781 C 262.96875 183.515625 263.351562 183.269531 263.753906 183.058594 C 264.164062 182.851562 264.597656 182.695312 265.0625 182.585938 C 265.523438 182.472656 266.03125 182.417969 266.578125 182.417969 C 267.460938 182.417969 268.246094 182.574219 268.929688 182.886719 C 269.613281 183.199219 270.1875 183.636719 270.640625 184.199219 C 271.101562 184.765625 271.449219 185.441406 271.683594 186.222656 C 271.921875 187.003906 272.042969 187.867188 272.042969 188.808594 L 272.042969 199.535156 L 268.140625 199.535156 L 268.140625 188.808594 C 268.140625 187.777344 267.910156 186.980469 267.453125 186.421875 C 266.996094 185.855469 266.308594 185.574219 265.390625 185.574219 C 264.71875 185.574219 264.085938 185.730469 263.496094 186.046875 C 262.90625 186.367188 262.347656 186.800781 261.820312 187.347656 Z M 281.488281 182.386719 C 282.183594 182.386719 282.835938 182.460938 283.445312 182.609375 C 284.058594 182.753906 284.617188 182.972656 285.121094 183.253906 L 289.777344 183.253906 L 289.777344 184.765625 C 289.777344 185.019531 289.714844 185.21875 289.589844 185.359375 C 289.460938 185.5 289.246094 185.601562 288.941406 185.652344 L 287.488281 185.933594 C 287.59375 186.21875 287.675781 186.519531 287.730469 186.835938 C 287.789062 187.15625 287.820312 187.488281 287.820312 187.839844 C 287.820312 188.671875 287.660156 189.425781 287.339844 190.097656 C 287.019531 190.769531 286.578125 191.34375 286.011719 191.816406 C 285.449219 192.285156 284.777344 192.648438 284.003906 192.90625 C 283.234375 193.164062 282.394531 193.292969 281.488281 193.292969 C 280.878906 193.292969 280.28125 193.230469 279.703125 193.109375 C 279.195312 193.429688 278.941406 193.785156 278.941406 194.179688 C 278.941406 194.519531 279.09375 194.769531 279.390625 194.929688 C 279.695312 195.085938 280.089844 195.199219 280.578125 195.265625 C 281.066406 195.328125 281.625 195.371094 282.246094 195.386719 C 282.867188 195.402344 283.503906 195.4375 284.15625 195.496094 C 284.808594 195.546875 285.445312 195.644531 286.070312 195.78125 C 286.6875 195.917969 287.242188 196.132812 287.730469 196.429688 C 288.222656 196.726562 288.617188 197.128906 288.917969 197.636719 C 289.21875 198.144531 289.367188 198.800781 289.367188 199.601562 C 289.367188 200.34375 289.191406 201.066406 288.839844 201.769531 C 288.488281 202.46875 287.976562 203.09375 287.308594 203.640625 C 286.636719 204.1875 285.820312 204.628906 284.851562 204.960938 C 283.882812 205.296875 282.777344 205.460938 281.535156 205.460938 C 280.304688 205.460938 279.234375 205.339844 278.328125 205.09375 C 277.421875 204.847656 276.671875 204.519531 276.074219 204.109375 C 275.480469 203.695312 275.035156 203.222656 274.742188 202.6875 C 274.445312 202.152344 274.300781 201.59375 274.300781 201.011719 C 274.300781 200.222656 274.53125 199.5625 274.996094 199.023438 C 275.457031 198.488281 276.101562 198.0625 276.921875 197.742188 C 276.519531 197.515625 276.199219 197.207031 275.960938 196.824219 C 275.714844 196.441406 275.59375 195.941406 275.59375 195.328125 C 275.59375 195.078125 275.636719 194.816406 275.722656 194.546875 C 275.804688 194.28125 275.933594 194.015625 276.105469 193.753906 C 276.28125 193.492188 276.5 193.242188 276.761719 193.003906 C 277.027344 192.769531 277.339844 192.558594 277.695312 192.375 C 276.875 191.914062 276.230469 191.300781 275.757812 190.535156 C 275.292969 189.765625 275.058594 188.871094 275.058594 187.839844 C 275.058594 187.007812 275.21875 186.253906 275.539062 185.582031 C 275.863281 184.90625 276.308594 184.332031 276.882812 183.859375 C 277.457031 183.382812 278.132812 183.015625 278.917969 182.761719 C 279.703125 182.511719 280.5625 182.386719 281.488281 182.386719 Z M 285.765625 200.289062 C 285.765625 199.960938 285.671875 199.691406 285.480469 199.484375 C 285.292969 199.277344 285.035156 199.117188 284.710938 199 C 284.382812 198.886719 284 198.800781 283.5625 198.746094 C 283.128906 198.691406 282.664062 198.648438 282.171875 198.621094 C 281.683594 198.59375 281.179688 198.570312 280.65625 198.542969 C 280.136719 198.511719 279.632812 198.464844 279.148438 198.398438 C 278.707031 198.652344 278.351562 198.953125 278.082031 199.296875 C 277.8125 199.640625 277.679688 200.039062 277.679688 200.488281 C 277.679688 200.78125 277.75 201.058594 277.894531 201.316406 C 278.035156 201.574219 278.261719 201.796875 278.570312 201.980469 C 278.882812 202.167969 279.285156 202.3125 279.78125 202.417969 C 280.277344 202.519531 280.878906 202.570312 281.597656 202.570312 C 282.324219 202.570312 282.953125 202.515625 283.476562 202.398438 C 284.003906 202.285156 284.4375 202.128906 284.78125 201.925781 C 285.121094 201.722656 285.371094 201.480469 285.53125 201.203125 C 285.6875 200.921875 285.765625 200.617188 285.765625 200.289062 Z M 281.488281 190.699219 C 281.972656 190.699219 282.394531 190.628906 282.75 190.492188 C 283.109375 190.355469 283.40625 190.164062 283.644531 189.925781 C 283.878906 189.683594 284.058594 189.394531 284.179688 189.054688 C 284.300781 188.714844 284.363281 188.34375 284.363281 187.9375 C 284.363281 187.105469 284.121094 186.445312 283.644531 185.960938 C 283.164062 185.472656 282.445312 185.226562 281.488281 185.226562 C 280.527344 185.226562 279.808594 185.472656 279.328125 185.960938 C 278.851562 186.445312 278.613281 187.105469 278.613281 187.9375 C 278.613281 188.332031 278.671875 188.699219 278.792969 189.039062 C 278.914062 189.378906 279.09375 189.671875 279.328125 189.917969 C 279.566406 190.164062 279.867188 190.355469 280.230469 190.492188 C 280.59375 190.628906 281.011719 190.699219 281.488281 190.699219 Z M 281.488281 190.699219 "/>
<path style=" stroke:none;fill-rule:nonzero;fill:rgb(0%,0%,0%);fill-opacity:1;" d="M 134.304688 211.425781 L 133.261719 213.511719 C 133.144531 213.75 133.011719 213.921875 132.855469 214.023438 C 132.703125 214.117188 132.523438 214.167969 132.3125 214.167969 C 132.101562 214.167969 131.867188 214.082031 131.605469 213.914062 C 131.339844 213.746094 131.027344 213.554688 130.671875 213.347656 C 130.3125 213.140625 129.894531 212.949219 129.414062 212.78125 C 128.9375 212.609375 128.371094 212.523438 127.71875 212.523438 C 127.128906 212.523438 126.613281 212.597656 126.175781 212.746094 C 125.738281 212.894531 125.371094 213.101562 125.070312 213.363281 C 124.773438 213.628906 124.550781 213.941406 124.402344 214.308594 C 124.253906 214.675781 124.179688 215.078125 124.179688 215.515625 C 124.179688 216.074219 124.328125 216.539062 124.628906 216.914062 C 124.929688 217.285156 125.328125 217.601562 125.824219 217.863281 C 126.316406 218.128906 126.878906 218.363281 127.511719 218.570312 C 128.144531 218.777344 128.789062 219 129.445312 219.238281 C 130.105469 219.472656 130.75 219.746094 131.382812 220.058594 C 132.015625 220.371094 132.578125 220.765625 133.070312 221.242188 C 133.566406 221.714844 133.964844 222.296875 134.265625 222.988281 C 134.5625 223.679688 134.714844 224.515625 134.714844 225.5 C 134.714844 226.574219 134.539062 227.578125 134.183594 228.515625 C 133.832031 229.453125 133.316406 230.269531 132.636719 230.964844 C 131.957031 231.660156 131.128906 232.207031 130.152344 232.605469 C 129.171875 233.007812 128.046875 233.207031 126.785156 233.207031 C 126.058594 233.207031 125.34375 233.132812 124.636719 232.984375 C 123.933594 232.835938 123.257812 232.625 122.609375 232.351562 C 121.960938 232.078125 121.355469 231.75 120.789062 231.367188 C 120.226562 230.980469 119.726562 230.554688 119.285156 230.085938 L 120.515625 227.964844 C 120.628906 227.8125 120.769531 227.683594 120.933594 227.582031 C 121.097656 227.476562 121.277344 227.425781 121.476562 227.425781 C 121.742188 227.425781 122.027344 227.535156 122.332031 227.761719 C 122.636719 227.984375 122.996094 228.234375 123.410156 228.507812 C 123.828125 228.78125 124.316406 229.03125 124.882812 229.257812 C 125.445312 229.480469 126.121094 229.59375 126.910156 229.59375 C 128.125 229.59375 129.058594 229.292969 129.722656 228.699219 C 130.386719 228.097656 130.71875 227.242188 130.71875 226.125 C 130.71875 225.503906 130.570312 224.992188 130.265625 224.597656 C 129.96875 224.203125 129.570312 223.875 129.078125 223.605469 C 128.582031 223.335938 128.015625 223.109375 127.386719 222.925781 C 126.753906 222.738281 126.109375 222.535156 125.457031 222.3125 C 124.804688 222.09375 124.164062 221.832031 123.53125 221.527344 C 122.898438 221.21875 122.335938 220.820312 121.84375 220.328125 C 121.347656 219.835938 120.949219 219.21875 120.648438 218.480469 C 120.351562 217.742188 120.199219 216.828125 120.199219 215.746094 C 120.199219 214.878906 120.363281 214.039062 120.695312 213.214844 C 121.027344 212.394531 121.511719 211.667969 122.148438 211.03125 C 122.785156 210.398438 123.570312 209.886719 124.496094 209.503906 C 125.421875 209.121094 126.480469 208.929688 127.667969 208.929688 C 129.015625 208.929688 130.257812 209.148438 131.398438 209.585938 C 132.535156 210.023438 133.503906 210.636719 134.304688 211.425781 Z M 144.664062 215.828125 C 145.875 215.828125 146.972656 216.03125 147.957031 216.433594 C 148.941406 216.839844 149.78125 217.417969 150.476562 218.160156 C 151.171875 218.90625 151.710938 219.8125 152.089844 220.886719 C 152.46875 221.960938 152.65625 223.160156 152.65625 224.484375 C 152.65625 225.816406 152.46875 227.023438 152.089844 228.097656 C 151.710938 229.167969 151.171875 230.082031 150.476562 230.839844 C 149.78125 231.59375 148.941406 232.175781 147.957031 232.582031 C 146.972656 232.984375 145.875 233.1875 144.664062 233.1875 C 143.453125 233.1875 142.355469 232.984375 141.367188 232.582031 C 140.375 232.175781 139.53125 231.59375 138.828125 230.839844 C 138.128906 230.082031 137.585938 229.167969 137.203125 228.097656 C 136.820312 227.023438 136.625 225.816406 136.625 224.484375 C 136.625 223.160156 136.820312 221.960938 137.203125 220.886719 C 137.585938 219.8125 138.128906 218.90625 138.828125 218.160156 C 139.53125 217.417969 140.375 216.839844 141.367188 216.433594 C 142.355469 216.03125 143.453125 215.828125 144.664062 215.828125 Z M 144.664062 230.066406 C 146.011719 230.066406 147.011719 229.597656 147.660156 228.65625 C 148.308594 227.710938 148.632812 226.332031 148.632812 224.515625 C 148.632812 222.699219 148.308594 221.3125 147.660156 220.363281 C 147.011719 219.40625 146.011719 218.929688 144.664062 218.929688 C 143.296875 218.929688 142.285156 219.410156 141.632812 220.367188 C 140.980469 221.328125 140.652344 222.710938 140.652344 224.515625 C 140.652344 226.324219 140.980469 227.699219 141.632812 228.648438 C 142.285156 229.59375 143.296875 230.066406 144.664062 230.066406 Z M 155.960938 208.535156 L 159.859375 208.535156 L 159.859375 232.941406 L 155.960938 232.941406 Z M 163.933594 216.089844 L 167.835938 216.089844 L 167.835938 226.800781 C 167.835938 227.828125 168.066406 228.625 168.523438 229.191406 C 168.980469 229.753906 169.667969 230.035156 170.585938 230.035156 C 171.261719 230.035156 171.890625 229.878906 172.480469 229.566406 C 173.070312 229.253906 173.628906 228.824219 174.15625 228.277344 L 174.15625 216.089844 L 178.054688 216.089844 L 178.054688 232.941406 L 175.671875 232.941406 C 175.167969 232.941406 174.835938 232.695312 174.675781 232.203125 L 174.410156 230.855469 C 174.070312 231.207031 173.722656 231.527344 173.367188 231.820312 C 173.007812 232.109375 172.625 232.355469 172.21875 232.554688 C 171.8125 232.757812 171.375 232.917969 170.910156 233.035156 C 170.441406 233.148438 169.9375 233.207031 169.398438 233.207031 C 168.515625 233.207031 167.734375 233.050781 167.054688 232.738281 C 166.375 232.425781 165.804688 231.984375 165.34375 231.414062 C 164.878906 230.84375 164.527344 230.167969 164.289062 229.386719 C 164.050781 228.605469 163.933594 227.742188 163.933594 226.800781 Z M 187.550781 233.207031 C 186.148438 233.207031 185.066406 232.792969 184.308594 231.964844 C 183.550781 231.136719 183.171875 229.996094 183.171875 228.542969 L 183.171875 219.128906 L 181.53125 219.128906 C 181.320312 219.128906 181.136719 219.058594 180.984375 218.917969 C 180.835938 218.773438 180.757812 218.558594 180.757812 218.273438 L 180.757812 216.664062 L 183.363281 216.222656 L 184.183594 211.625 C 184.226562 211.40625 184.324219 211.234375 184.476562 211.113281 C 184.628906 210.992188 184.824219 210.933594 185.054688 210.933594 L 187.074219 210.933594 L 187.074219 216.238281 L 191.339844 216.238281 L 191.339844 219.128906 L 187.074219 219.128906 L 187.074219 228.261719 C 187.074219 228.785156 187.203125 229.195312 187.453125 229.492188 C 187.707031 229.789062 188.042969 229.933594 188.464844 229.933594 C 188.707031 229.933594 188.910156 229.90625 189.074219 229.847656 C 189.238281 229.789062 189.378906 229.722656 189.496094 229.65625 C 189.621094 229.59375 189.726562 229.527344 189.824219 229.46875 C 189.917969 229.40625 190.011719 229.378906 190.109375 229.378906 C 190.222656 229.378906 190.316406 229.40625 190.394531 229.46875 C 190.464844 229.527344 190.542969 229.621094 190.628906 229.738281 L 191.796875 231.710938 C 191.226562 232.203125 190.574219 232.574219 189.839844 232.828125 C 189.101562 233.078125 188.339844 233.207031 187.550781 233.207031 Z M 194.703125 216.089844 L 198.605469 216.089844 L 198.605469 232.941406 L 194.703125 232.941406 Z M 199.1875 211.179688 C 199.1875 211.527344 199.121094 211.855469 198.984375 212.164062 C 198.847656 212.46875 198.664062 212.738281 198.4375 212.96875 C 198.214844 213.199219 197.949219 213.382812 197.640625 213.523438 C 197.335938 213.65625 197.011719 213.726562 196.660156 213.726562 C 196.324219 213.726562 196.007812 213.65625 195.707031 213.523438 C 195.40625 213.382812 195.148438 213.199219 194.925781 212.96875 C 194.703125 212.738281 194.527344 212.46875 194.394531 212.164062 C 194.261719 211.855469 194.199219 211.527344 194.199219 211.179688 C 194.199219 210.816406 194.261719 210.480469 194.394531 210.160156 C 194.527344 209.84375 194.703125 209.570312 194.925781 209.339844 C 195.148438 209.109375 195.40625 208.925781 195.707031 208.792969 C 196.007812 208.652344 196.324219 208.582031 196.660156 208.582031 C 197.011719 208.582031 197.335938 208.652344 197.640625 208.792969 C 197.949219 208.925781 198.214844 209.109375 198.4375 209.339844 C 198.664062 209.570312 198.847656 209.84375 198.984375 210.160156 C 199.121094 210.480469 199.1875 210.816406 199.1875 211.179688 Z M 209.929688 215.828125 C 211.140625 215.828125 212.238281 216.03125 213.222656 216.433594 C 214.207031 216.839844 215.046875 217.417969 215.742188 218.160156 C 216.4375 218.90625 216.972656 219.8125 217.351562 220.886719 C 217.730469 221.960938 217.921875 223.160156 217.921875 224.484375 C 217.921875 225.816406 217.730469 227.023438 217.351562 228.097656 C 216.972656 229.167969 216.4375 230.082031 215.742188 230.839844 C 215.046875 231.59375 214.207031 232.175781 213.222656 232.582031 C 212.238281 232.984375 211.140625 233.1875 209.929688 233.1875 C 208.71875 233.1875 207.621094 232.984375 206.628906 232.582031 C 205.640625 232.175781 204.792969 231.59375 204.09375 230.839844 C 203.394531 230.082031 202.851562 229.167969 202.46875 228.097656 C 202.082031 227.023438 201.890625 225.816406 201.890625 224.484375 C 201.890625 223.160156 202.082031 221.960938 202.46875 220.886719 C 202.851562 219.8125 203.394531 218.90625 204.09375 218.160156 C 204.792969 217.417969 205.640625 216.839844 206.628906 216.433594 C 207.621094 216.03125 208.71875 215.828125 209.929688 215.828125 Z M 209.929688 230.066406 C 211.277344 230.066406 212.277344 229.597656 212.921875 228.65625 C 213.570312 227.710938 213.894531 226.332031 213.894531 224.515625 C 213.894531 222.699219 213.570312 221.3125 212.921875 220.363281 C 212.277344 219.40625 211.277344 218.929688 209.929688 218.929688 C 208.5625 218.929688 207.550781 219.410156 206.898438 220.367188 C 206.242188 221.328125 205.917969 222.710938 205.917969 224.515625 C 205.917969 226.324219 206.242188 227.699219 206.898438 228.648438 C 207.550781 229.59375 208.5625 230.066406 209.929688 230.066406 Z M 224.871094 232.941406 L 220.972656 232.941406 L 220.972656 216.089844 L 223.355469 216.089844 C 223.859375 216.089844 224.191406 216.335938 224.351562 216.828125 L 224.617188 218.160156 C 224.945312 217.808594 225.292969 217.492188 225.65625 217.207031 C 226.015625 216.921875 226.402344 216.675781 226.804688 216.46875 C 227.210938 216.261719 227.648438 216.101562 228.113281 215.992188 C 228.574219 215.882812 229.082031 215.828125 229.628906 215.828125 C 230.511719 215.828125 231.296875 215.984375 231.980469 216.296875 C 232.664062 216.605469 233.234375 217.046875 233.691406 217.609375 C 234.152344 218.175781 234.5 218.847656 234.734375 219.632812 C 234.972656 220.414062 235.09375 221.273438 235.09375 222.214844 L 235.09375 232.941406 L 231.191406 232.941406 L 231.191406 222.214844 C 231.191406 221.1875 230.960938 220.390625 230.5 219.828125 C 230.046875 219.265625 229.359375 218.980469 228.441406 218.980469 C 227.765625 218.980469 227.136719 219.140625 226.546875 219.457031 C 225.957031 219.773438 225.398438 220.207031 224.871094 220.753906 Z M 224.871094 232.941406 "/>
</g>
</svg>
